<mxfile host="app.diagrams.net" modified="2023-11-19T10:51:46.834Z" agent="Mozilla/5.0 (X11; Ubuntu; Linux x86_64; rv:109.0) Gecko/20100101 Firefox/119.0" version="22.1.0" etag="exlTQx9fk4iH9L4PG7rX" type="github">
  <diagram name="Page-1" id="BwvD4kUWMVO92EfnGFby">
    <mxGraphModel>
      <root>
        <mxCell id="0" />
        <mxCell id="1" parent="0" />
      </root>
    </mxGraphModel>
  </diagram>
</mxfile>
